<?xml version="1.0" encoding="UTF-8" standalone="no"?>
<!-- Created with Inkscape (http://www.inkscape.org/) -->

<svg
   width="210mm"
   height="297mm"
   viewBox="0 0 793.70081 1122.5197"
   version="1.1"
   id="svg5"
   inkscape:version="1.1.2 (b8e25be833, 2022-02-05)"
   sodipodi:docname="drawing2.svg"
   xmlns:inkscape="http://www.inkscape.org/namespaces/inkscape"
   xmlns:sodipodi="http://sodipodi.sourceforge.net/DTD/sodipodi-0.dtd"
   xmlns="http://www.w3.org/2000/svg"
   xmlns:svg="http://www.w3.org/2000/svg">
  <sodipodi:namedview
     id="namedview7"
     pagecolor="#ffffff"
     bordercolor="#666666"
     borderopacity="1.0"
     inkscape:pageshadow="2"
     inkscape:pageopacity="0.0"
     inkscape:pagecheckerboard="0"
     inkscape:document-units="px"
     showgrid="false"
     inkscape:zoom="1.4396184"
     inkscape:cx="153.16559"
     inkscape:cy="348.35621"
     inkscape:window-width="1920"
     inkscape:window-height="1001"
     inkscape:window-x="-9"
     inkscape:window-y="-9"
     inkscape:window-maximized="1"
     inkscape:current-layer="layer1"
     units="mm" />
  <defs
     id="defs2">
    <rect
       x="31.258284"
       y="386.90809"
       width="448.0354"
       height="202.83153"
       id="rect5490" />
    <rect
       x="291.74399"
       y="1575.4175"
       width="1278.1165"
       height="536.25323"
       id="rect15309" />
    <rect
       x="577.93091"
       y="1672.6655"
       width="1125.2982"
       height="736.30621"
       id="rect4109" />
    <rect
       x="97.247993"
       y="515.41437"
       width="537.64246"
       height="272.29437"
       id="rect3948" />
  </defs>
  <g
     inkscape:label="Layer 1"
     inkscape:groupmode="layer"
     id="layer1">
    <rect
       style="display:inline;fill:#1ac900;stroke:#14175c;stroke-width:0.871564;stroke-linecap:round;stroke-linejoin:round;stroke-miterlimit:4;stroke-dasharray:none"
       id="rect1335"
       width="283.40845"
       height="312.58282"
       x="108.36205"
       y="73.630623"
       transform="matrix(0.64819382,0,0,0.64832438,-69.957142,-47.454)" />
    <rect
       style="display:inline;fill:#0300c9;fill-opacity:1;stroke:#14175c;stroke-width:0.871564;stroke-linecap:round;stroke-linejoin:round;stroke-miterlimit:4;stroke-dasharray:none"
       id="rect1335-4"
       width="283.40845"
       height="312.58282"
       x="108.36205"
       y="73.630623"
       transform="matrix(0.5078459,-0.40279992,0.40288105,0.50794819,8.2795526,227.56176)" />
    <g
       id="g2133" />
    <g
       id="g2785"
       transform="rotate(-60.128934,313.144,160.12062)">
      <rect
         style="fill:#0300c9;fill-opacity:1;stroke:#14175c;stroke-width:2.13543;stroke-linecap:round;stroke-linejoin:round"
         id="rect2679"
         width="22.228113"
         height="32.647541"
         x="316.05597"
         y="91.690964" />
      <rect
         style="fill:#0300c9;fill-opacity:1;stroke:#14175c;stroke-width:2.13543;stroke-linecap:round;stroke-linejoin:round"
         id="rect2681"
         width="3.4731426"
         height="29.174398"
         x="393.85437"
         y="100.72114" />
      <rect
         style="fill:#0300c9;fill-opacity:1;stroke:#14175c;stroke-width:2.13543;stroke-linecap:round;stroke-linejoin:round"
         id="rect2683"
         width="36.120682"
         height="25.701256"
         x="350.78741"
         y="147.26125" />
      <rect
         style="fill:#0300c9;fill-opacity:1;stroke:#14175c;stroke-width:2.13543;stroke-linecap:round;stroke-linejoin:round"
         id="rect2685"
         width="30.563656"
         height="44.456226"
         x="427.19653"
         y="125.03313"
         transform="rotate(64.167507,442.47836,147.26124)" />
    </g>
    <path
       style="fill:none;stroke:#000000;stroke-width:10.82834646;stroke-linecap:butt;stroke-linejoin:round;stroke-opacity:1;stroke-miterlimit:4;stroke-dasharray:none"
       d="m 379.26718,118.08685 45.15085,211.16707 121.56,-164.62696 -106.27817,17.36572"
       id="path3143" />
    <path
       d="m 86.140623,405.78841 q 4.361979,0 6.705729,3.125 1.888021,2.47396 1.888021,5.98958 0,6.31511 -4.231771,14.38802 -3.710937,6.96615 -9.244791,12.5 -3.645834,3.58073 -5.729167,3.58073 -1.367187,0 -2.539062,-1.36718 -0.846354,-0.97657 -0.846354,-2.21355 0,-2.27864 3.971354,-5.20833 5.598958,-4.16667 8.91927,-9.11458 4.882812,-7.16146 4.882812,-12.10938 0,-2.01823 -0.911458,-2.99479 -0.846354,-0.97656 -2.604166,-0.97656 -3.580729,0 -10.15625,5.20833 -7.486979,5.85938 -15.820312,15.95052 -10.611979,12.82552 -16.145833,25.26042 -5.729166,12.89062 -5.729166,22.00521 0,4.36197 2.539062,7.42187 2.799479,3.45052 6.835938,3.45052 7.031249,0 17.708332,-10.9375 3.190104,-3.32031 7.747396,-9.63542 2.994791,-4.03645 3.841145,-5.72916 0.976563,-1.88802 2.278646,-1.88802 1.432292,0 1.432292,1.36719 0,2.92968 -7.291667,13.15104 -6.054687,8.52864 -13.346353,13.93229 -8.203125,6.05468 -15.494791,6.05468 -7.617188,0 -11.783854,-6.83593 -2.669271,-4.36198 -2.669271,-9.96094 0,-14.0625 13.28125,-35.48177 11.328124,-18.22917 23.893228,-29.36198 10.872395,-9.57031 18.619791,-9.57031 z"
       style="font-size:133.333px;line-height:1.25;font-family:'Freestyle Script';-inkscape-font-specification:'Freestyle Script, Normal';white-space:pre;stroke:#000000;stroke-opacity:1;stroke-width:0.62362205;stroke-miterlimit:4;stroke-dasharray:none;fill:#dfff89;fill-opacity:1"
       id="path8830" />
    <path
       d="m 129.23958,453.57487 q -14.77865,2.92968 -24.73958,6.90104 -5.989586,8.78906 -13.151044,21.09375 l -3.450521,6.05469 q -0.911458,1.6276 -2.799479,4.68749 -2.083333,3.58073 -4.361979,3.58073 -1.236979,0 -2.083333,-0.97656 -0.846355,-0.84635 -0.846355,-1.88802 0,-1.82292 4.882813,-10.35156 2.669271,-4.6224 8.072916,-13.08594 2.083333,-3.25521 3.320313,-5.33854 -3.90625,1.10677 -7.161459,2.53906 -1.562499,0.71615 -2.604166,0.71615 -1.302083,0 -2.018229,-1.17188 -0.520834,-0.71614 -0.520834,-1.6927 0,-2.21355 1.5625,-3.125 2.539063,-1.5625 9.114583,-3.58073 4.882813,-1.5625 7.747394,-2.86459 1.36719,-1.69271 7.16146,-9.96093 2.47396,-3.58073 14.0625,-16.92709 8.33333,-9.76562 17.1875,-18.16406 5.14323,-4.94792 7.8776,-4.94792 1.69271,0 2.92969,1.36719 1.04167,1.23698 1.04167,2.73438 0,1.82291 -1.82292,6.38021 -3.125,8.00781 -5.98958,17.12239 -2.47396,8.07292 -3.32032,12.36979 1.17188,0 1.5625,-0.0651 1.88803,-0.0651 3.125,-0.0651 3.77605,0 3.77605,2.86459 0,1.23698 -0.84636,2.47395 -0.78125,1.17188 -1.82291,1.4323 -0.39063,0.1302 -2.14844,0.1302 -3.71094,0 -5.53386,0.45573 -1.5625,4.6224 -4.94791,23.63282 -1.75782,12.6302 -1.69271,15.49479 0,4.6875 -2.79948,4.6875 -2.21354,0 -3.45052,-2.27865 -0.91146,-1.5625 -0.91146,-4.23177 0,-8.98437 3.19011,-24.21875 1.6276,-7.68229 2.40885,-11.78385 z m 1.82292,-7.03125 q 0.58593,-1.88802 2.99479,-10.09115 0.58593,-2.14844 2.99479,-8.52864 2.40885,-6.57552 3.84114,-10.54688 -4.23177,2.79948 -8.59375,7.42188 -15.36458,16.53645 -21.67968,27.01822 2.40885,-0.58593 10.35156,-2.92968 2.27865,-0.65104 10.09115,-2.34375 z"
       style="font-size:133.333px;line-height:1.25;font-family:'Freestyle Script';-inkscape-font-specification:'Freestyle Script, Normal';white-space:pre;stroke:#000000;stroke-opacity:1;stroke-width:0.62362205;stroke-miterlimit:4;stroke-dasharray:none;fill:#dfff89;fill-opacity:1"
       id="path8832" />
    <path
       d="m 194.21354,415.42383 q -13.02083,2.01823 -24.15365,5.14323 -2.34374,0.84635 -3.64583,0.84635 -1.49739,0 -2.53906,-1.36719 -0.65104,-0.78125 -0.65104,-1.82291 0,-2.79948 4.03646,-4.10157 10.80729,-3.2552 25.45572,-5.98958 18.35938,-3.32031 35.28646,-3.32031 5.72917,0 7.68229,0.71614 1.82292,0.65105 1.82292,2.47396 0,3.0599 -4.49219,3.58073 -3.90625,0.39063 -11.78385,0.58594 -15.69011,0.52083 -21.48438,1.95312 1.62761,0.65105 1.62761,2.01823 0,1.43229 -2.08334,4.49219 -12.36979,18.09896 -23.63281,41.08073 -8.59375,17.44791 -12.5651,30.98958 -0.91146,4.10156 -3.125,4.10156 -2.01823,0 -3.38542,-2.08333 -0.91146,-1.36719 -0.91146,-2.86458 0,-5.98959 11.39323,-29.16667 7.29167,-14.90885 13.47657,-25.13021 2.47395,-4.16666 11.91406,-19.33593 z"
       style="font-size:133.333px;line-height:1.25;font-family:'Freestyle Script';-inkscape-font-specification:'Freestyle Script, Normal';white-space:pre;stroke:#000000;stroke-opacity:1;stroke-width:0.62362205;stroke-miterlimit:4;stroke-dasharray:none;fill:#dfff89;fill-opacity:1"
       id="path8834" />
    <path
       d="m 232.55989,446.2832 q 4.03646,0 6.05469,1.43229 2.01823,1.43229 2.01823,4.36198 0,3.84115 -2.86458,7.42188 -2.73438,3.38541 -8.20313,5.46875 -2.99479,1.10677 -5.01302,1.10677 -2.73437,0 -2.73437,-2.40886 0,-1.6276 1.5625,-2.47396 0.39062,-0.19531 4.42708,-1.10677 2.40885,-0.52083 4.42708,-2.27864 1.75782,-1.4974 1.75782,-3.25521 0,-1.36719 -0.78125,-2.01823 -0.78125,-0.65104 -2.34375,-0.65104 -3.77604,0 -8.33334,3.05989 -5.27343,3.45053 -5.27343,8.20313 0,3.38542 3.45052,8.46354 3.84114,5.53385 3.84114,9.375 0,5.72917 -5.07812,8.98438 -3.125,2.01822 -7.09636,2.01822 -6.25,0 -9.5052,-4.49218 -2.27865,-3.19011 -2.27865,-7.55209 0,-5.07812 2.60417,-8.52864 1.69271,-2.27865 3.51562,-2.27865 1.62761,0 1.62761,1.30209 0,0.52083 -0.58594,1.5625 -1.4974,2.79947 -1.4974,6.57552 0,3.1901 2.27865,5.40364 2.01823,1.95313 4.62239,1.95313 2.53907,0 3.97136,-1.69271 1.17187,-1.43229 1.17187,-3.64583 0,-2.73438 -3.125,-7.09636 -4.29687,-5.98958 -4.29687,-10.87239 0,-6.51042 7.09635,-11.52344 6.90104,-4.81771 14.58333,-4.81771 z"
       style="font-size:133.333px;line-height:1.25;font-family:'Freestyle Script';-inkscape-font-specification:'Freestyle Script, Normal';white-space:pre;stroke:#000000;stroke-opacity:1;stroke-width:0.62362205;stroke-miterlimit:4;stroke-dasharray:none;fill:#dfff89;fill-opacity:1"
       id="path8836" />
    <path
       d="m 285.74999,407.41601 q 1.43229,0 2.21354,1.17188 0.65105,0.97656 0.65105,2.21354 0,2.66927 -3.90625,10.02604 -16.01563,30.01302 -28.90625,50.13021 -2.08334,3.32031 -2.60417,4.42708 -1.69271,3.19011 -3.51562,3.19011 -1.30209,0 -2.27865,-1.4974 -0.84635,-1.23698 -0.84635,-2.66927 0,-1.82292 1.88802,-5.07813 0.52083,-0.91145 4.55729,-7.09635 5.14323,-8.65885 10.22135,-17.12239 1.69271,-2.92969 10.15625,-18.48959 2.99479,-5.46875 4.75261,-8.59375 2.08333,-3.71093 3.97135,-7.68229 1.43229,-2.92969 3.64583,-2.92969 z m -42.3177,77.34375 q 1.43229,0 2.40885,1.30209 0.65104,0.84635 0.65104,2.14843 0,3.0599 -1.69271,6.44531 -1.75781,3.58073 -4.62239,3.58073 -2.99479,0 -2.99479,-3.38541 0,-3.38542 2.08333,-6.90104 1.88802,-3.19011 4.16667,-3.19011 z"
       style="font-size:133.333px;line-height:1.25;font-family:'Freestyle Script';-inkscape-font-specification:'Freestyle Script, Normal';white-space:pre;stroke:#000000;stroke-opacity:1;stroke-width:0.62362205;stroke-miterlimit:4;stroke-dasharray:none;fill:#dfff89;fill-opacity:1"
       id="path8838" />
  </g>
</svg>
